<?xml version="1.0" standalone="no"?>
<!DOCTYPE svg PUBLIC "-//W3C//DTD SVG 20010904//EN"
 "http://www.w3.org/TR/2001/REC-SVG-20010904/DTD/svg10.dtd">
<svg version="1.0" xmlns="http://www.w3.org/2000/svg"
 width="512.000000pt" height="512.000000pt" viewBox="0 0 512.000000 512.000000"
 preserveAspectRatio="xMidYMid meet">
<metadata>
Created by potrace 1.14, written by Peter Selinger 2001-2017
</metadata>
<g transform="translate(0.000000,512.000000) scale(0.100000,-0.100000)"
fill="#000000" stroke="none">
<path d="M3891 5029 c-13 -5 -41 -23 -63 -40 -40 -33 -98 -127 -668 -1094 -26
-44 -90 -152 -142 -240 -52 -88 -278 -473 -503 -855 -549 -935 -486 -835 -526
-833 -41 2 -160 62 -579 295 -381 211 -647 354 -676 362 -31 9 -75 -31 -143
-133 -130 -193 -534 -835 -556 -883 -49 -104 -48 -105 285 -293 286 -160 445
-251 835 -472 742 -422 977 -554 1159 -654 l186 -101 68 4 c77 4 131 35 172
97 62 95 416 688 820 1376 123 209 268 457 323 550 55 94 121 206 147 250 26
44 77 132 115 195 99 168 248 421 362 615 55 94 145 247 200 340 159 269 359
616 383 664 19 38 22 56 18 113 -8 112 -7 111 -403 347 -420 250 -615 362
-673 384 -47 19 -104 21 -141 6z"/>
</g>
</svg>
